<?xml version="1.0" encoding="UTF-8" standalone="no"?>
<!-- Uploaded to: SVG Repo, www.svgrepo.com, Transformed by: SVG Repo Mixer Tools -->

<svg
   fill="#ffffff"
   width="100"
   height="100"
   viewBox="0 0 6.5 6.5"
   version="1.1"
   id="svg193"
   sodipodi:docname="planning-poker-svgrepo-com-2.svg"
   inkscape:version="1.2.2 (b0a84865, 2022-12-01)"
   xmlns:inkscape="http://www.inkscape.org/namespaces/inkscape"
   xmlns:sodipodi="http://sodipodi.sourceforge.net/DTD/sodipodi-0.dtd"
   xmlns="http://www.w3.org/2000/svg"
   xmlns:svg="http://www.w3.org/2000/svg">
  <defs
     id="defs197" />
  <sodipodi:namedview
     id="namedview195"
     pagecolor="#ffffff"
     bordercolor="#000000"
     borderopacity="0.25"
     inkscape:showpageshadow="2"
     inkscape:pageopacity="0.0"
     inkscape:pagecheckerboard="0"
     inkscape:deskcolor="#d1d1d1"
     showgrid="false"
     inkscape:zoom="5.135"
     inkscape:cx="81.596884"
     inkscape:cy="73.709835"
     inkscape:window-width="2043"
     inkscape:window-height="1205"
     inkscape:window-x="0"
     inkscape:window-y="31"
     inkscape:window-maximized="0"
     inkscape:current-layer="svg193" />
  <g
     id="SVGRepo_bgCarrier"
     stroke-width="0"
     transform="translate(-2.0052792,-4.89)" />
  <g
     id="SVGRepo_tracerCarrier"
     stroke-linecap="round"
     stroke-linejoin="round"
     transform="translate(-2.0052792,-4.89)" />
  <g
     id="SVGRepo_iconCarrier"
     transform="matrix(0.12527631,0,0,0.12527631,-0.00682691,-0.00689177)"
     style="fill:#ffffff;stroke-width:7.98235">
    <g
       id="g190"
       style="fill:#ffffff;stroke-width:7.98235">
      <path
         d="M 48.34,10 42.07,8 V 37.12 L 49.88,13 a 2.41,2.41 0 0 0 -1.53,-3 z"
         id="path184"
         style="fill:#ffffff;stroke-width:7.98235" />
      <path
         d="M 20.52,5.59 16.81,6.8 3.66,11.08 a 2.42,2.42 0 0 0 -1.55,3 l 10.18,31.35 a 2.41,2.41 0 0 0 3,1.57 l 14,-4.56 2.85,-0.94 a 2.39,2.39 0 0 0 1.56,-3 L 23.59,7.14 a 2.4,2.4 0 0 0 -3,-1.57 z"
         id="path186"
         style="fill:#ffffff;stroke-width:7.98235" />
      <path
         d="M 37.34,34.06 V 7.3 A 2.41,2.41 0 0 0 34.93,4.89 H 27.8 a 6.07,6.07 0 0 1 0.32,0.8 l 9.05,27.75 a 5.24,5.24 0 0 1 0.17,0.62 z"
         id="path188"
         style="fill:#ffffff;stroke-width:7.98235" />
    </g>
  </g>
</svg>
